<mxfile host="app.diagrams.net" modified="2023-08-06T14:55:52.340Z" agent="Mozilla/5.0 (Macintosh; Intel Mac OS X 10_15_7) AppleWebKit/537.36 (KHTML, like Gecko) Chrome/115.0.0.0 Safari/537.36" etag="Cep_GNL5tlt1pVuOBNAs" version="21.6.5" type="github">
  <diagram name="代码片段" id="mTQpjmjGrxzuRj2ZDvYZ">
    <mxGraphModel dx="1434" dy="765" grid="1" gridSize="10" guides="1" tooltips="1" connect="1" arrows="1" fold="1" page="1" pageScale="1" pageWidth="827" pageHeight="1169" math="0" shadow="0">
      <root>
        <mxCell id="0" />
        <mxCell id="1" parent="0" />
        <mxCell id="72B60rN5-rt9cfSifWYk-1" value="idux 文档" style="ellipse;shape=cloud;whiteSpace=wrap;html=1;fontSize=16;" parent="1" vertex="1">
          <mxGeometry x="575" y="73" width="120" height="80" as="geometry" />
        </mxCell>
        <mxCell id="72B60rN5-rt9cfSifWYk-3" value="自定义组件库文档" style="ellipse;shape=cloud;whiteSpace=wrap;html=1;fontSize=16;" parent="1" vertex="1">
          <mxGeometry x="575" y="273" width="120" height="80" as="geometry" />
        </mxCell>
        <mxCell id="72B60rN5-rt9cfSifWYk-7" style="edgeStyle=elbowEdgeStyle;rounded=0;orthogonalLoop=1;jettySize=auto;html=1;fontSize=16;" parent="1" source="72B60rN5-rt9cfSifWYk-4" target="72B60rN5-rt9cfSifWYk-3" edge="1">
          <mxGeometry relative="1" as="geometry" />
        </mxCell>
        <mxCell id="72B60rN5-rt9cfSifWYk-9" style="edgeStyle=elbowEdgeStyle;rounded=0;orthogonalLoop=1;jettySize=auto;html=1;fontSize=16;" parent="1" source="72B60rN5-rt9cfSifWYk-4" target="72B60rN5-rt9cfSifWYk-8" edge="1">
          <mxGeometry relative="1" as="geometry" />
        </mxCell>
        <mxCell id="72B60rN5-rt9cfSifWYk-14" style="edgeStyle=orthogonalEdgeStyle;rounded=0;orthogonalLoop=1;jettySize=auto;html=1;fontSize=16;" parent="1" source="72B60rN5-rt9cfSifWYk-4" target="72B60rN5-rt9cfSifWYk-12" edge="1">
          <mxGeometry relative="1" as="geometry" />
        </mxCell>
        <mxCell id="72B60rN5-rt9cfSifWYk-4" value="爬虫工具" style="sketch=0;outlineConnect=0;fontColor=#232F3E;gradientColor=none;fillColor=#4D27AA;strokeColor=none;dashed=0;verticalLabelPosition=bottom;verticalAlign=top;align=center;html=1;fontSize=16;fontStyle=0;aspect=fixed;pointerEvents=1;shape=mxgraph.aws4.glue_crawlers;" parent="1" vertex="1">
          <mxGeometry x="405" y="183" width="60" height="60" as="geometry" />
        </mxCell>
        <mxCell id="72B60rN5-rt9cfSifWYk-8" value="物料平台" style="ellipse;shape=cloud;whiteSpace=wrap;html=1;fontSize=16;" parent="1" vertex="1">
          <mxGeometry x="575" y="176" width="120" height="80" as="geometry" />
        </mxCell>
        <mxCell id="72B60rN5-rt9cfSifWYk-21" value="处理成" style="edgeStyle=orthogonalEdgeStyle;rounded=0;orthogonalLoop=1;jettySize=auto;html=1;strokeWidth=1;fontSize=16;" parent="1" source="72B60rN5-rt9cfSifWYk-12" target="72B60rN5-rt9cfSifWYk-20" edge="1">
          <mxGeometry relative="1" as="geometry" />
        </mxCell>
        <mxCell id="72B60rN5-rt9cfSifWYk-12" value="demo 片段" style="strokeWidth=1;html=1;shape=mxgraph.flowchart.database;whiteSpace=wrap;fontSize=16;" parent="1" vertex="1">
          <mxGeometry x="315" y="400" width="90" height="90" as="geometry" />
        </mxCell>
        <mxCell id="72B60rN5-rt9cfSifWYk-6" style="edgeStyle=elbowEdgeStyle;rounded=0;orthogonalLoop=1;jettySize=auto;html=1;fontSize=16;" parent="1" source="72B60rN5-rt9cfSifWYk-4" target="72B60rN5-rt9cfSifWYk-1" edge="1">
          <mxGeometry relative="1" as="geometry">
            <mxPoint x="575" y="173" as="targetPoint" />
          </mxGeometry>
        </mxCell>
        <mxCell id="72B60rN5-rt9cfSifWYk-13" value="自动抓取" style="edgeLabel;html=1;align=center;verticalAlign=middle;resizable=0;points=[];fontSize=16;" parent="72B60rN5-rt9cfSifWYk-6" vertex="1" connectable="0">
          <mxGeometry x="-0.4364" y="-2" relative="1" as="geometry">
            <mxPoint x="19" y="-2" as="offset" />
          </mxGeometry>
        </mxCell>
        <mxCell id="72B60rN5-rt9cfSifWYk-15" value="业务组件" style="ellipse;shape=cloud;whiteSpace=wrap;html=1;fontSize=16;" parent="1" vertex="1">
          <mxGeometry x="240" y="30" width="120" height="80" as="geometry" />
        </mxCell>
        <mxCell id="72B60rN5-rt9cfSifWYk-17" style="edgeStyle=orthogonalEdgeStyle;rounded=0;orthogonalLoop=1;jettySize=auto;html=1;fontSize=16;" parent="1" source="72B60rN5-rt9cfSifWYk-16" target="72B60rN5-rt9cfSifWYk-15" edge="1">
          <mxGeometry relative="1" as="geometry" />
        </mxCell>
        <mxCell id="72B60rN5-rt9cfSifWYk-18" value="AST扫描" style="edgeLabel;html=1;align=center;verticalAlign=middle;resizable=0;points=[];fontSize=16;" parent="72B60rN5-rt9cfSifWYk-17" vertex="1" connectable="0">
          <mxGeometry x="-0.4104" y="-4" relative="1" as="geometry">
            <mxPoint as="offset" />
          </mxGeometry>
        </mxCell>
        <mxCell id="72B60rN5-rt9cfSifWYk-19" style="edgeStyle=orthogonalEdgeStyle;rounded=0;orthogonalLoop=1;jettySize=auto;html=1;fontSize=16;" parent="1" source="72B60rN5-rt9cfSifWYk-16" target="72B60rN5-rt9cfSifWYk-12" edge="1">
          <mxGeometry relative="1" as="geometry" />
        </mxCell>
        <mxCell id="72B60rN5-rt9cfSifWYk-16" value="提取工具" style="rounded=0;whiteSpace=wrap;html=1;fontSize=16;" parent="1" vertex="1">
          <mxGeometry x="240" y="183" width="120" height="60" as="geometry" />
        </mxCell>
        <mxCell id="72B60rN5-rt9cfSifWYk-23" value="发布" style="edgeStyle=orthogonalEdgeStyle;rounded=0;orthogonalLoop=1;jettySize=auto;html=1;strokeWidth=1;fontSize=16;" parent="1" source="72B60rN5-rt9cfSifWYk-20" target="72B60rN5-rt9cfSifWYk-22" edge="1">
          <mxGeometry relative="1" as="geometry" />
        </mxCell>
        <mxCell id="72B60rN5-rt9cfSifWYk-20" value="code snippets" style="whiteSpace=wrap;html=1;fontSize=16;strokeWidth=1;" parent="1" vertex="1">
          <mxGeometry x="530" y="415" width="120" height="60" as="geometry" />
        </mxCell>
        <mxCell id="72B60rN5-rt9cfSifWYk-27" value="安装" style="edgeStyle=elbowEdgeStyle;rounded=0;orthogonalLoop=1;jettySize=auto;html=1;elbow=vertical;dashed=1;fontSize=16;" parent="1" source="72B60rN5-rt9cfSifWYk-22" target="72B60rN5-rt9cfSifWYk-26" edge="1">
          <mxGeometry relative="1" as="geometry" />
        </mxCell>
        <mxCell id="72B60rN5-rt9cfSifWYk-22" value="&amp;nbsp;vscode 插件" style="whiteSpace=wrap;html=1;fontSize=16;strokeWidth=1;" parent="1" vertex="1">
          <mxGeometry x="760" y="415" width="120" height="60" as="geometry" />
        </mxCell>
        <mxCell id="72B60rN5-rt9cfSifWYk-28" value="使用" style="edgeStyle=orthogonalEdgeStyle;rounded=0;orthogonalLoop=1;jettySize=auto;html=1;fontSize=16;" parent="1" source="72B60rN5-rt9cfSifWYk-24" target="72B60rN5-rt9cfSifWYk-26" edge="1">
          <mxGeometry relative="1" as="geometry" />
        </mxCell>
        <mxCell id="72B60rN5-rt9cfSifWYk-24" value="开发" style="shape=umlActor;verticalLabelPosition=bottom;verticalAlign=top;html=1;outlineConnect=0;fontSize=16;" parent="1" vertex="1">
          <mxGeometry x="96.5" y="595" width="30" height="60" as="geometry" />
        </mxCell>
        <mxCell id="72B60rN5-rt9cfSifWYk-31" value="" style="edgeStyle=orthogonalEdgeStyle;rounded=0;orthogonalLoop=1;jettySize=auto;html=1;fontSize=16;" parent="1" source="72B60rN5-rt9cfSifWYk-26" target="72B60rN5-rt9cfSifWYk-30" edge="1">
          <mxGeometry relative="1" as="geometry" />
        </mxCell>
        <mxCell id="72B60rN5-rt9cfSifWYk-26" value="vscode" style="shape=image;verticalLabelPosition=bottom;labelBackgroundColor=default;verticalAlign=top;aspect=fixed;imageAspect=0;image=data:image/png,iVBORw0KGgoAAAANSUhEUgAAAGcAAABnCAYAAAAdQVz5AAAAAXNSR0IArs4c6QAAAARnQU1BAACxjwv8YQUAAAAJcEhZcwAADsQAAA7EAZUrDhsAABhlSURBVHhe7V0JnBXFnf7mPhhm5AZBQC4B5fCKJnjt6qokUfAH2VxmY7KJmo3GxKhRNIdRITFRo0YSzRqzURM3wXigEYJiVpGYKIJABAREQVCOARnmzflmZr+vuupR09NveDPz3iTM8P34pqr+VV1dXV/X1V39yGoicAit4rHtwF/LG7GnOo4B+U04c0AOTu+fa2Mzh0PitIL7X3sfX/rtGqCuGigpQp9RI9Fz4EBUVNehZw5w88R8XHhkvk2dfhwSJwkue+pN3PPMeqCsAFANNTYCVTXof8w49Bl2BOrjceytB/IY9e1j8nHp6PSLdEicCJz/8ErMf2UrWwuFkShGHLHBCDTu/HPQGG8IzKy+CorUwPjrxufhm+N4TJpwSJwQjvvZK1i+YTdQpDEli8KwehpIuY1kdQ2GnXoyCkpL0KSwhapxXxyoZdqvj8nHdyeoJfH4DiDbuodADP7REix/i8L0oDBZtmIlQJYVocm2IjYTmXhnJ6iKLOM41Dc/C/du4Jj0u0pcs7zGiNZeHBLHovDG57FtVxVbjEYR22KMEtYvYZzf6CZbiLRlkz2p7aAi4OF36lHy+3346ivViNUrvm3o9uLE2TKyrl2EWk6Tkc9aDeo4gNws21qanGAe1LqSMIssyc3C4KIsPLE1jn6P7cNFf6lCeY1ETg3dWpztlXXIu2phUKG57JOcMEYUVbJS6Y/zMyKkz4EgkXpQpCHFWXhuRwOGPlmJmS9WYXPlgUXqtuKsfL8SA2c9y/6MrYWVZweR/XQqyDHCEMbEPy66DcxiyyvODlrSK+UNGP90JaYujmHtXs4Ak6BbirNgfTkm3fRnoCdnVGwwkbUpyjFwNqmUMO43t4ESqZAiHV6UjTUVjThxYQynL4rhlV0tRep24tz36lZMvWMpcFgha4qVbcYSy8ZQWJMA04rkV80qB/2xNnnbSZ26ICeLE4dsbI414iy2ohOfqcQub0zqVuJcv2gDLvnlcqAXp1KqIXs3Jyj4fiMeA2YiYP1pBnNFPkUaSJF21jVhyOOVWGe7um4jzmd/txqzn1wXCOMG+9boYFqQE0VCBU4mWMByDeGYdPKCGA3dRJxTf/EqfrN0c/CcLDHYH4CmxdArSCzn3+8JvGlmDk+m7m7uutquL86o217Ckjd2ctXPxaXrolKh4FwD+f1WRLhWlmYWcwI5f0u8a4tT9v3nsXHbvmDV32ygT4GCm1ZLD080E8wgczmbe4uThC4rTta1f0LFvrpgHaO6bisN6NGzNdWYmxzIZmvR6ZUJNvIG6XLiVNTGkXXlM7xCBvLNIqZ90PGimTzI47Df7xpW2mnz7lLibCivQpmEyeNlcVCNvCVTpWkaQb4GskmoQDFjCmoxA7ToMuK8+PYejL7+Wa76OSNjn92isttKQbevvGYcsrZORJcQ57evv4/T5rzANQxX/RLGdEUdZKAK/9kVuzHRb80ZJ3HQizPn/zbhM3P/CvS2i8t0wZ+1mdpSOAgl4FdmOinQPajFueSxNZj1yCoKU8yQrbx0UTCuFUjdWqJFWSiYCVoctOJMfWAZ7nt2g90dwwozXY5cR4V9mws7mx8O2+lqR4erKAWNzfp9gTKIVjd4LN4Sw0ef3ILa3bUm3G9AEV6cORRH9Wbf/g/ExDuXYtVGvevXK+VMgcpIKD2pNhs8GoI1T6wGQ0+dgsKyMkYzPlPgqZK2nFuX7cKZD6xHbR0LVcaFXGkudsbqMfanazH7bztsqs7HgFv+jFWb9lAYt7slUyTMbSsB5KHNbPZwdutmggLdyJZz6eJtuPelnZyWUpQoVDVg0tBirLhwlDV0DvJmLUK8uh4oSFKudENiqJbUQvQUX5vT9lZiwOmnoqxPr8y2HGbdQpypj2/Ggjd4Z+rpm24TexO1QJ05GpsvPgpHlGZuS6pQG29E4dULgmlybicNk66FqHokEsuAPVWY9qFBKJ50ApZujyM/k0Xh6ZplP/GhjViw9oOgLzfzfRsRBZUsJxtDf/IG7l6+yxrTj60VNSi84qlgxZ+nMrGiOoMGdOWVMOUx3P3F4/H4V09BHcPa6Snd2kOTc4S9GZkm0XL637sOOz+o07tTBW2sdR18sRJ2emJxfGRUT7z0qRHWlh68trUCx39/cTAjy+6kFuNDEwJtmeIlbrnpLAw5TG9QgenPV2HZrgYUqCVnAsrWtZzcO9/ATu3K1oNCVbqreLlhQRwTdnpK8rD0nRiybluNXVXMJw148o0dOP67z1EYvetnMf1zdxb31mLycI4td5+XEMaHe5iQdipvMvuqF95HQ5U21LECnNWncCC7YFpcFvr96O94YDWnuR3APUs3Y9rtLwWrfp0gquIySY0x5VWY/YkJWH7lKTQkQ/hAwfcLvj2ZG6bQhKzec9c27VbTlWRpATOvjOPs8WVYOGO4taWOq55ai9ueWGPf9VtjZ6KOdcF1zZvf/leM7tfDGptj+vMx060VduCNxAGhbm236YZYoc1WyGF/FBXv6IeZXY8c/Gl9BXLuWI2Y1kkpYuaDy3EbxYEWuWZQ7kSq7PtqMXpQKZruOi+pMAa8XHOY20olN+xPxnB6x3AaMntsHw62Opnp7HjGRKcnv9xkVLxjOExDQbb5nKVkzkrMW8cZ4AFw8l1L8ejSd4JH/n6hO4O6f8qrMeu8sXjzmtOCArUGHpJwebkJ+P5kCKd3VF6OFtk3TenPbsgN4t5ZVWjfjaK7OOdPxAl0Nf3tmYdPPLIJM55kxSfBsJsW469rtQlD6yWW1LVCwRU+U1TLrqrDCs7Gbpl6FA1thH/ZHWEEsmeOLsOFJ/WD+TxLA6FaUaLZem4U3QU6fzje2Hlmzub+sHoviu/8O+JaZXvocfUfsXlbRfCu3+VnQI8ECl+EYTJ7GyjE6jCkbzGa5k7DpMNLrfGfB2Yq/eDUIbjuzEGBQK523AVEXVQqtmbkH46e1bWNyLt5JZ59p5JGzkYueQxVXGSamaK5MTzaYpjxzAScm4ggo+IcfZv8HvXYZXcMl589Eltu+Bfa2oio0yRzfaaSxtmJZo9vfrFqNy7+PbufMvuEIBPQ6WrJfRyH3tsKFHGMyaE4WtD5bzEF4w+8+8uTKG77oNV+dT2WfOt0TDmytzW2DdOf5WytnLM1fxEqbweLloDyYjFbPFtb+HYlzr1/PVBKgTK1AtYpczgPrWNLfYvn0mkU1lMAiWBEos3QeXiMFqPtBo/nzLQPZ2G7bjzL2tqH6c+5qbTKlSFQnBZXe87wEqy6YhzMJMF1L+mmKltjTx7HmXFHc2bHNU1tHW0cnNXlGDKhSW8Pkkiui3N6pUods6caF51+ZIeF6UxE3orH9C3E9m9NAGq4IFNFmQHYuWHKHo47UNhSld3Ac4wcCQzkmFcjgWgz445c57dUTUus5o29FTBdPQXnuLaAU+QHPjnR2jsInd7S3TupMJGWl5UYSsNxLkwn8n2OQwMrJPfWVUFAX39lDMxbn/3VcHKwcSODCvO+0VgkfzMGyQ2cmwwcW3qUFWLvzWczq450ic1xgT524pjT2oNPxSSt2ANBB1O8Vkucw5M3XTsRhXpupvc3bl2TdvJkusPzuM4x3RwnCRqPNHiblqRz63Zyrshj1Jrk6mrC+e2uxowPHYHK2eemVZhm4Kkc3b3jwiqGb3P+qHALu80mpVJXf+NoDO7NCqtlBbojM0FVuh4rjBwN9OPiuJYtyXVtfndnGrtoDgrCLg+l+6AG874+BfM+fzwNmYM7peiQzOYjHHYI21O+pd69dCyOH9aDMx6OEQ6qnwPBTxP2Rx0vW5ytpv8AYNSY4EFkvR37/DHI/aqG0hsyjt1YTl42Yj+bhhkTOYZlEonzZohEm9r7q58bhfMn9Nr/NEGZsE5apZ8m7I863tnUzeUXsps7Juju1M1JECeQaWUed9fgnIkDEf/RR1Gs3xPIJNwtztNmhALdNnfGT1wwDJefPnD/0wQV1FEIh4WouHC8b3N+0zIoxqijwAUKJwy1QbeVGIdI+wr5V185CQsuOckc3mnwy51OWrRrpLzrzEG4bdpQ9u0UyPT/Fl7GBv7JwnGCH+8QlU7d3AB2UyNG2YmC7eYqOfVmq9n18+n4PAf/roZ2iSNceWJfzLuI65NKfzwgTXfj+V04bI9K44d9yi6BCrlYVTeXzW5rTxWmjOuHprnT0acHJyudCRYp4yTaLY4wY0wZbj+7L7sZ3u5mLkioMh1c5SoubHdwaRxc2KezayYnd8QYnHbG0Vhy9RlBXGfDFqlFhaaLAt0OifOH5Vtx5R3PcSr3FheNvJvdhD1MIcreHho04oUd2Zjy0AYb/gdBxckELdotzu2LN2DG7Oe5HunJmRUH6nVvMDe9VGfunvptppCKLT8bSzdVImvO6yhP046ffza0S5yvPboK37z/FQ7SJcyBWeSw1ajLWbs6qDjd4RwmWlRoKow6LlleebwZuBTve9NK/Gplx3b8tBlR5UkniTaLM+2/X8Hd89dwalscNEE9XxL1bEyirKNAerpsHv8zPtPUY/uyPHzhfzfhnEfYvXYGbOW1qNB0UaDbJnFOuP1FPPmyXsZp2xIrRe9X5CYEUiuiSG+yi6tjV9feZ1qugKlCZSjNx5/WVSDnhyvbtOOnPUg0ZJ42XWy2GceeI+XaG/K9RVi2bkfwM1jmkT+NxqXHF0pPkvWeZgNbV2WMZ6BYbhVvZlw8zrjW7+J8JuKTkP+apXF+jkON8SaUfHcF5q058I6fjoJnTBsFP6zqTUmcwqufxtbtlUCxPlayYqhClEOCsjM7tRYxn2uPd97kQpVjgZnJMb05hooY1/rlqjgm7PldMX27C7un04mw9Yuak5Tm4hO/3oCZf9jEQIZgT50pCq2KY37/8rLHUavZkL6JcW1ONF2WBFFu8jrXxqmb07Oxd9kN7tpOgdy+BNK5jn7YTxO2h+NaC3McevT1Pejx41W8DjXRNMJWXqIu0k2BblJxduyrRd7Fj9LHCw3//qVorpdxTjBl5cYe/gv8dPVu5v1twLatvKspUDifjJHnL8xFVXUD8q5/DQs3VtCYTvAk/q2eNqpi6ZKR4qx+rwID2GLMD/pE/f6loymg4qWGwnJJJ5JpQTQVcJzavRPYzG5GLUiwh2ecGgN75uHc+97ERfM305BORJ2woxQCfwtxFq7dgQkcY8ynF+q/mx0YRTtumBYjlyajkcIiMzFjEEWJcZDexHFIY5Bg0nUG+Yfd3P/8bRf63sGpvil3OtDiRGllM3F+8Zd3cO7NzwVrGFV2xAHJaWEGZxuWk82wKkcCqdVUVwGvrQi6RfPCjG6mKCT8LENRLsr3xZHFbm7JFm1s7ABc7yP3QPTTOX9rxyqOTIgz66k1uPiepYEwuhCboE3UcW5vWaLlMCyTqOlurB7PXn8Gmm6YGITrWRo/j3TSu9AE1c1RpFPvWoPLF3IcbC94aSY/uQ7yh8OCSyc6v1wHFyd6MLtvPvfga3ho0Xog4uutNsOdwLQg64qxOhSXFaDi9vObbbjocesqVMXiHJfUh0aVvDUkS5tCHoquasCQAYXY8rXxgS1FTFsQw6s745nfVPjo69vw0EL9MKn9JqajNFctv84gP6GdMFOGI/aT6S12wsSumYBh/Tij0yfsSq81jMujNRrxI9Ims0exRzbe3VOLrBuWYcX77G7bAmURhWT21pDkmOwbnuZKXoO/K3A6qTFlTxXmXXMG5n0p+Svkty8bj5NGlMK8uNMU2P+IyPnDNjOFt34/Lmx3/qi0cvXIia322B+vxqzFnPKnAv8ydR+4e0Gu4GzhuCiG8/LyyV67lfN/Df7uotLFqjhyeOGxX/47Zkw+PDhbK3j5C6Mx4/i+gH760UEF9cFsjU2u8wt+OCpN2OZTdl3/YfmYs2gbxszlzZoK3LF+PmFbOE50CMdFuNm9zZdk1pgW8s/uKpxz7GDE75zWpp0w82YMxzf/bTCwVwIxH3cBjoJzBd8uJEvju2Ek4ukpycP67TXI+vYyrC+vsREt4S7VNEC51u+7Cbv8Xjp37ybSeMcp7KfN/uLJw4L+nsYOU49JKMyvLp+CBf/1YRrajh+fdTh++skj2R0GmzeCEqeBpgZCtijqJyjzcjDm5pWYs+R9GpJAafc7LeDbXdZC2O/DxTm7ma3lXvEEGmrs87P2wvz/Mzkov/Vj6G0+H+wY5r+5F+ffy4lKmZ6CS/lOhLnRyMo6TBrREysuHWvMDuf/kbO1HZyt6elJoiZJv7b9cLLiK97F+X6BYTN1UvfTX+ubKt6tbup7IJq72rp7qnHK+P5ouueCtAgjnDemDMuuOoZjEG8anUcF7yw69MzD65tjyLruVbxruloPSsdiJeD7hXBcFIVW/Il57fbZH8XEkRyQtRfMdYytUaXTbKy8Cnd/+SS8+I0UvkJuI44bVIyt35kcbAHW5kFzYzCimesYZW8tTWvpZLA2/aoJF65HXLcMdy/dbszm4YlgqyHttGjxCcjUuUux4OXNQKnWPdYYBXWDLOWWH34s8qdH0gnzq1E3Lmd5WKCMfopioVOoW3OuqF2mHAenndALBUcMxUvv1SM/oVIGwNO1EEe49JEVuHf+GxG/osGAklfUYPL4gVh+bTs+du0A8m5ZgXiN9lCbJ7LtgC41xQo14vCPmU7JZZgNGJW16Dt+BEpLe3C9bKtOWbpadNn7teqf0k/niuOn9dB8uW7x809Nxg8uOgHYWel1J6R2+9M258LjOl0Yof76yejfi1N/CdQu+LWUAkz3bWGEYF3k6X/psNXmov3KlV/0T+Vs4XS+K/jH0B/ZchwWr9vBbu4vqNu+z4T7H9kbSzi2jO5fYsL/KEz8+VqseluvzfV2loZwRTj4dofw1SY71sC1HEaIGmNr6zF47EgU9Cji/drigLSiVXH+mTH14Y1YsGK3WThGQpUedWVOjNauWmnUjSW6NSZ24nCsHTyuc8SJ7NYOBjzz2ZG42HyKwtmleehKo08hbHN2ISrOMQrSwdfChTPIg1Yc4d6PH4E5FwwDdrv1GY3pokTywz5c2I/PAA9qcYRrTxmA3/znmCQCubDcMKPirV8eOYJzoxBucWnmQS+O8OkJvfDClUcDH9SyMjlOmP1wIiONyxpuQWf3463fKEK/gQtb0OssmWaXEEc4dVgJNnznWK5DuDg2M20po0v0bsU2U8fLoSua6XRTUHnWlEl2GXGEkb0LsHc212f6JN/sTWAF8yLbRTUct84xLo2mVQWOkc+aMsUuJY5QWpCDph+eyCtj9WlDOy+yzUyAAYWNRkaO5vHWlAmqfXY5cRyavn8cSntyDdSeH7bw4YebCZc5mC4tqwv+h3o+9l43CSMHFQVPtVWxbaFEcX7TxVka2EB4kEgTtUd9RGkXF0fYcMXROOWosmCiwGtPiYI/WXNwrSiRln8ywBjHy+kj8rq+OMKLXAd95sP97dMEGsyIKzcJE7AB38ZDEzCbJtNLPSHSUHnZpMLuIY7w8MzhmPXxIVys1tg7VLO5ZJR4zlVajxlELZXZUtmIZZ8Ofgy224gj3HLWYNz3+dEUSItVGsxUO4KK1ANP4+pIk9hj+qDcJMp7sUb0LczCzi8fhrG9gvdV3Uoc4csn9MUzVxwT7O4xLYPGMIM/ARLhRGRzndpJnbom3oRt+xoxvCQbS2b2xMrPlqFv0X5JDtpXBh3Fyu3VmDT79eCVQ9SeZ1MrbDbulYEGA7k19Th83KjglYF5YtA2aP2id4Xl1U04Y0gu7jy9GOP7RL/Z7bbiCNs5gxv4ndeCTfTh/9FKtWLGHyuOE6jWE6cNVae02j1WXtOEjx+Zh7vOKMLQnq2/bu/W4ghaU+TNWhYEnEBqSBLDVQ3vdONPQRxZ/HaoNFpm7a5pxCfH5OMnpxWjX3Fqo0m3G3PCyM3OQtMPTkC+/r8VzWFVs6aG6TG17FzCaqE5gmtMPqWVGISbsK+Os699TZg+Mg8VX+mFh88tSVkYoduL41D7vWNxeN9C72mC/lAVU+MKK5UF/UYva3cPKgNxAlG2cUr8H2PzUf+1w3DfmT1QrP9vro04JI6HrddMwLEjSmA2VqrWjUCiXfNYNdSo5HNrRynVSEsFRdlR1YTLJkqU3ridg72ekbUX3X7MicJ5D27AU3/bxZmcHbATfRf9HHOGnzCJcwUFNAxRFC6b1I3d8KEifOtEfeuUHhwSJwkun78ZP316S7CRXu1E4lCYXkMGo6x/X8TjDdhb22Rm4Td/pAhfnZw+URwOidMK7n+1HF/69SY2DzaNokL0HDQAxWWHYV91PUrzszDnlCJcdHSBTZ1+HBInBfxuYyNe3hbHnpo4BhYB5wzLwxlHJNkvlzYA/w8ncT8khZ4S4AAAAABJRU5ErkJggg==;fontSize=16;" parent="1" vertex="1">
          <mxGeometry x="237" y="595" width="60" height="60" as="geometry" />
        </mxCell>
        <mxCell id="72B60rN5-rt9cfSifWYk-33" value="出现" style="edgeStyle=orthogonalEdgeStyle;rounded=0;orthogonalLoop=1;jettySize=auto;html=1;fontSize=16;" parent="1" source="72B60rN5-rt9cfSifWYk-30" target="72B60rN5-rt9cfSifWYk-32" edge="1">
          <mxGeometry relative="1" as="geometry" />
        </mxCell>
        <mxCell id="72B60rN5-rt9cfSifWYk-30" value="输入关键字&lt;br style=&quot;font-size: 16px;&quot;&gt;date" style="whiteSpace=wrap;html=1;verticalAlign=middle;labelBackgroundColor=default;fontSize=16;" parent="1" vertex="1">
          <mxGeometry x="375" y="595" width="120" height="60" as="geometry" />
        </mxCell>
        <mxCell id="72B60rN5-rt9cfSifWYk-32" value="" style="shape=image;verticalLabelPosition=bottom;labelBackgroundColor=default;verticalAlign=top;aspect=fixed;imageAspect=0;image=data:image/png,iVBORw0KGgoAAAANSUhEUgAAA/AAAACCCAYAAADhXSNZAAAgAElEQVR4nO3deXxU1f3/8RcQkcliYCJZWAIEKAECBBiMLAImgBAwoBWhtSCigvykRitCtbVqFxdKq1haxYVSrQpKW4qCiEKpAhoIEDFo/AoBghCSyABmkgBS/f0xS2ZNZpLJMvh+Ph4+Hmbuufeceycon3s+53NaJKeYvkMaz7ibeTgNPvzN33inqcciQXHNbQsZmgBQou9VREREREQaTAsF8CIiIiIiIiLNX8umHoCIiIiIiIiI1E4BvIiIiIiIiEgICPvuO98Z9C1bXdKIQxERERERERERX8Jo4ftgixqOiYiIiIiIiEjjCaPGEnaK4EVERERERESag7CaDyuAFxEREREREWkOagzgfaXQj4tP4Sedq/hg10Geb4hRBVVbHh/Sgw6c5bNP8nnsbOBXuL27iasMX/L3/BNsCv4ARURERERERGpVpxn4Vi1acmnLVjUvoPdhXs8rGG0oYuW+E7wd8Nl10YLWLVtxKS1pXceMgrCWrbi0ZQtaKSNBREREREREmkgtAbx3rVq0pHWrFnU6OaxlC1q3bEGrunRcJ6f5Wc7Oel2h8ccsIiIiIiIi4qpO+8C3aAGt6nhyS6yBcCjNZYfimEVEREREROTiEtaihr3iHMcMHVg1qAuRLkfP0bJFC6egth3PDE+ms1OLo599yDyzt2PduGNEN+6w/WQ5vJfpx5wWpxt78VZvY/XPJwuYVHDK8ePdyUMZQwGTSmOd2lXxyZ487q/yNR4z723/nKe83aj7/bn117JlS1q1bFl9v07tq+9RREREREREpOHUngVvC6aPfvYh022BalbHVOZ0dW7UhscGxvL59g+Zh1Ob3qk8tieP+6tOMW/7h4At+DYc4bm9x1nnpTvrtat4b/uHtmC7DY8NHMhbya5BNTHJvBVjdrS7O3koYwb14m5HkF7dp+d4Pe/Pcngvk+wvEYy9eMZ4yntgbg/e3YJ8ERERERERkYZUSxZ8Gx7rYoSTBbXMMp/l/r2us9vrzKVYMNDWEMhw2jGhq4Gjnzlf6yz3HzFDTCx3u7R1nVF/6sgRLBjpZSQA7Ximt/X+XDIAzJ97v19jL94a1AUO71XwLiIiIiIiIo2qlhl4A23D4egRP4JV97R3m4DCXIOBdkBk76G85XGwijgDYE+Rryyn0OVwFaeAdoY2gJ97xdn6O1rqxyjDuzCnN57BvoiIiIiIiEgjqFMVeg9OaeiO4NaWal4X9VlXfqqqgYLryiM8dySKOb2TWdVxr4J4ERERERERaVR+FZK3zmpXS4pyzYvPMhgAMx/VN6h1mUUPkMFAO6o4XVV70zr3Z/6c5w5XEdl1IM8ElKovIiIiIiIiUj+1BPCn+PwkRHbt4lh/fnfyUMbEuLZaV1UFGKwp7uCjar1VYXkVhMcy1Ova+FO8XacAuR3PDOpC5MkjTlXo/eGjP2Mvn/2vO5bHeyehc++hCuJFRERERESk0bRITjF95+tg2CVtsFeB7xdu/cxyeC/Tq7rwVm9cisi5BvZVfLLnCG0HJYOXdHj3lwDu28hZq8a7RfhOVd+9vUTw2IquhpcIddq2zqVyfvUz8biWiIiIiIiISAPwI4Bvfmrbik5ERERERETkYuPXGngRERERERERaVoK4EVERERERERCQEim0IuIiIiIiIh832gGXkRERERERCQEKIAXERERERERCQEK4EVERERERERCQFhNBy98o/3N/XHaXNbUQxAREREREZEQ1NbY3u+2NQbw4r/L4zo29RBERESkiX1VcgxDRGRTD0NEREJEVYUloPZKoRcREREREREJAQrgRUREREREREKAUugbSvh47ntiOqlt63DuN1/x7qMLWHkg6KMSERERERGREKUAvqGkmugbW8kX737KsYBOjKDvqAH0GQ4ogBcREREREREbBfANqpLDLyxjZUDnjOeBYQMIeOJ+wZ/ZOq4TWD5h2fW/ZE0Ap6Zedz9zrkuhx/kcxt32dKA918G1LF51G1cYwbzrBa7/xZsBn//UP28jNRKKNk1m5pIGGaSIiE/JN8xnclIbSnKXsHJLDQ3Tb2FRSgX/fvp1ChptdH5KvpHsrAjyF/+VzU09FrvkG8nOSqRNST5P/G2j/+el38IiE+Q2p3sRERFpAFoDL/QYlkKf+EhaN/VARESkZum3sGjhAts/85ma3AT933Ujjd2tiISmWbPnBvR5Y10rGOc2pOY0ruY0FrHSDLw0gTdZOD3QWXcRkeajYM2yJphRH88sE+QuXsJmbFkAWbeQUXARzToXvM7SZpeqICJSLZCAduWK5TVep6bjoSyYzygY17nYKIAPUfGjbuXnt6bXOHN+w+9fYf4A171oz1u+ZNuLj/Dr9aX8/IV/Mz7R6WBiBls3Zdh++JKN4+7kcQBiSb/jLuaM60e87XIWcyE7X36MX68vdemraOvfKEr6ISMSrQ0tJ/aw8r5HWFMCcBcvbcrAuUvLxy8w6T7PYD5+4gJ+O2MgiUbb/Z0vIe+tZ7j72b3en8d1v+WFef2I5DxFmx5l5hJ7u/E8sGImAyPsLSvYu/R2Ht2By/EffPESs46P4Y3MDj7aiYgAjGfWwhTiADhL4bplvOEWcNrT6x3OVtj+ZRBT70onIr867T75hvlMjjhgTRe3pY9TuIWla/YAkHHzAkxxJ22p4RtZubj6sgX5pVyTFIsxGfx+m5B+C4tMMU4fnKxh7E73Z09tByCGyQsXMNl2fnXauvX+HKe7pMEPYupdw2DTASKy7M/vpEvKu/VebT07PYNqbtd3O9/bfThfx/Xe3M61L3XYBNfY7zPQNH4RcRGMANU9gPNnFr4xAjn3Przda23B58oVy5t9EG8fX13G6U97fwL0YDzri40C+FA09n7+ct+VGOtwauvITqTPux/z+nv8Pid1wUP8fFwnlxcFkcYk0uc9xPmjd/L4vurPE0ff7BKgR8YPYs7Dt7Jt3ouc8LO/6mDceeBxpI77ITc8u9dzfb/pLhbfam1v+fglFjqC97ksXj2K2LyXmPqY7S9hNy/hjezneQDX4DwidSZvpB5n/bQfsxKY9cSrTLztlwzb8VsUw4tItY2sXLwRayDfw/Nw+i1MTqogd/Eya3CYfguLUvy8dMHrLO1wC4tMw5iavIc3OtziFLwHQfKNZJsiKFy3xCkoj3A5fiU7eGKxU8A77kaSC16nwD4zXsOa/oyb00k6k88TT2/EHmxn31DqFIi3ISmrB4XrlvBEgS1gv3k8m21B8ua/WTMLMm5egOcjswXvjuvXcJs3zHf9DsDje0m+YT6T77qRY8730SaRyVknrRkOyTeSndWDqcl4vKAJngRGTs8iKRxKc5ezYV/tZ6RMmosp8gBvr9pMSUMNyyGVzNlp4OfYQk3c6BlMSCond8Va8pt6MLXpP4VZpjiorOt3b/0uowrXsXprcQMM0JM9oHIPrJwDr5qO+WrvrU1zD4Kbm5RJczGRw8q38mps5/xcQ+Flw/eJAvgQNP96W/Bu+Zx1zzzDH989RPwDz7FqdJxLuzX33eQS7PYY+xCL7xuEsXUsPa6Du2+bzOM4zdQXbWa0RxG765kzuhOtOU/R1mf49aNbOJCUzq8eziY9vhNXTBsB+7Y5tT/Pie0v8MtH9pL4wG/51eg4WncfxCxe5HGeZuY46/U9Zv8dRjB/mjUYP2/+hI0vvsgf360g9brpzJ/YzrN562t56oEMEltbZ/Nvu+9Nx4uCYfeb6FbxKU8+5vSXvb+9x95RM/nBqPGww+nzik95cnZ1sP5/pyuY2LUtPwAF8CLip0FMTYmhJHdJ3QPuLX/l38b5TE67kanRNV1rEFPHWYu9+RtgZqRZZ/d9ti94nZVOx6wz/BF0xJ8J/vF0jjtJ7mL7f1f38Eb+ABal9CCZPY7zS3KrMxY2Hz2JKeUy/EogSB9AUpuT5NYSvBtvmI8pqcLjpUdGZ9dnWbDmAFcu7EG/ZChwdH6WwnW28woOcHxcIhEd/Lr5i1Lc6H7EVh7g7aYM3uMzmJbZA4Pjg5JmEXA37ouU0OVrlrQ+M6h1nWmt6TxfxxoqWHUPjH2NwZ8XHIGKGz0DU2wJuSv8D96d+w8kiL/oZ8XDwgi7cIELPg+HceGCr6P17LpBrioN6Fp62OL0E7lL+OO71hT2E+e/8WgZP+pWfjYjndTEehSoG9WP+NYArUkcnc0Lo7NdDhvjBgFOAXzRB0x/5B0ADjyaz6zRcSTSlvjrgH/50+EgEq1vJ/h09S/547vWT/P+9TS3eTk/fthMElsD5o/4o1PwDvCDthEQ0Yd7Vr+KR75B2y6uP5eVuQTqOx67XYG7iDSJgjU76GefbfZR4T7j5nSSKOLfQU3xdk9RB/cUe5+SLyOaGOIWLsDk/Llj+YAPbfx7QZBsjICzpbVsyxpDUhJQcsDtpccgjNEQF7eARa6Do9Dlx1I+cQxkD2887Z7CH2zFvL9qOe83cC91k0Cv+HCqTnzahAFqKpmZPSjPXc7qfdYxjZyehWl6BmXft8B531pWXoRZEHXhawa+vucFGhz7E3DXNBb3QNifNPF66z+FCUlQuKHml2A19R1IEB+s8dfnWTccA1fe/ggTWMdTz2zjlPvhdiO49d4sWP8Qyz+sCnrvCuBD2Pnzpb4Pxt3Kb+/Lokd9S8tHXlL34L9/RPW55+s5Dh8sJ0qJTOxEa2MKWdfFsuVfbs/EbWZdRKS5y7g5nQ7H8ynskOKWgm4/bl8XH9yt6RwvBezXdU+xr1Ud0v3PVtQSlFsVmCuY3KG2VifJXVxM54Xen1utW/5Jtf5pJIWXkNtI6dbe5bHBZZawmPc/LSHJ1IFe8VDi77o8aVbqG5gGK3BzX9sd6LhCb112KpmmOKoK1/F+DX92nJ+HL42dTt88n3UVH61ax4B7p3P3PFyD+HYjmHvvdDocW8VTDRC8gwL4EHQIiwWIhPjkBaTHLaHIdD+/Hd3JtdmwbraZ8xK2PPxLfn0wlvETZzJnei+PtfNm++x9fDfmJ8Ey5ymJ9Yc4kd2PHlg48NaLLFu9hbyaXnu3bk08cCIpnV/dNYh4gPPH2Lne//szWyAxMpLUGYv5meUZRwr9nHERbJn3mMuyAEvBI7x66knmD4gk9daH+PnRO3k813pMafAi0rj2YD6TTlLn8YCtKJ0pxmMWOto4CNhjW5fdBpepxHT7uveNbE6+jOws23p4W6TuWtQuMMcqzmLqYE9pH8+srETauM+wn/na9lLAlqLvfvx4BWdNsW6p59hSztNd1rTXbDyzTDGcLfzYv5cQW4opMaVwzQ2DKPAobudsIyvXXUZ2Vjqz0vfYAvY9fHJ8GJNNt5CxpTlU7K9e+25VSeGGl73/pdq+9tlZZfW/ekvldl3b7WOdvT013cea6pTEOCjNcZ2l6z+FWaYoz7HaroVtfXXtY6rDc3ARTmQs+F1Yx22cBpcPy90aWdeKxzp9Uv3c3I/1YMLs6joYVW7ry1MmzcUU6+06YL/3hBPr2MoYJjgegtsSAffvv7SGdctubd3H4876nYQH3mf/KdbdMFbkYHT+/moamxPnlPG6BIB1nYFvbur7HALWvyux+H4pZ3+G7qn9vsboHOT7Gv9FX0H+1DaW/wHm3jud+bO+YdnKHE61S2PmXbbg3dvMfJAogA85+azZ9yUj4jvROvEqfvXyVd6bHTyNNc6PI/3h50mv4Ypbjp7iV0PaQeskbnj239wAVFehf5GNH6czf0AkPSZl89Qk5xR6C3nP3MTdzqnt8VexapPzmM5TtPU1XgVY8Ge2jnN90RA54Da2brrNqb83eXXHePqM60TryF5k3fcUWffZu/sEz8mTUtbc9yJXrMrmCmMnxj/wWw7M+yVrSmDHY7lMWT2KiSt+yf9pFl5EgsG9invWAhZlVVdr3/y3fDovTGHRwhTgJLnrikgZZ2+8hzc29SA7K51FC9PhbBG5hRGYIlyv7VirXfA6+WkLMGXNZyrLeIMbSYkDiMHknKruZ7V0e2q+tYL8WQrX5VOSleA4vjmniJQs+9ihpLCIs0luM/AFr/NOynwmZy1gURZUz7rv4Y2nYepd6Y7zwbOafJypOo3d9ZhzdX8A6zOqbmOtwD9roe3Z4dy3+43aiwEuYFFn67MpWLMMbpjPZOfndrbIazG+hueUOm8Lir2xBlhQuGG5I6i1BseB9rUOpmeRZJpCyj5bUD/ad/BOfAZ9Y6E01y0Y23eYUlMaSaZU3ncK1OKSO2CoITDwrrqo2kr7ef2nMCtzBtQQxMcZo4BKLDUkIHplC0pLHen41c+3WgIjp3elaMVyNuDUxjSDkaUv8/6J6oyAmtfA215MWHJYac8giM9gWuZcMnEtCGhIymJC5QHeXrGZEm9LBByp87Zr+rg9ezDu/JIgbvQURsav9fosvbWv/ryc3BXLbQG9td9Zk3ALzuMwzc6iyv79xWcwLTONzP55Lter7yxuIKnTgawXD8b67mAKZH/7uo4vJdFaBLHMx/FgvUypyzVD8QWMw6ltLP/DN8y8awbzb+/K8Q5X0eHIyzy1MqfBgndQAB+S8pYs4bl29zNrSJw1Rd3yJdtWHyLx1quqK8Dve4lXt3ZjzuhOtmruFswH91IUcRWp8W4XfPYl1nSfx/jecUR6yZdfc989nH/gfmaZkjAG8BeH85Yvydv0Gn/0sfWbLzuXPMLjlnnMGpdCon1Ali/ZuekfnhXoAdjCwiUpvPRwBomR/Zjzu7souu1pdrKchdNg8epRbuvgtUWciNTRlr/6XJduZa9SX22zy0y15z7njgDUy7Xtldmt6rtHupd13bWMzZuCNct8BL21rxv3ncbu+dwCauP+7Lw8S9/j9t6+aaUyOCm81nRX/xTz/qocImenYZqUSpmlnzU9foX3deRxyR0wVB5gq8ea6zx2F/ZjQlJXUshzBHi94sOh9JOACss5CuQ5B/37cijsk0VCcgKc8PIyID6D0UnhUJoT4DNJYGQfa0ZBzdX0i3l/1VqXT0oKjlOV1COwGX/78oNVTgHvic3sL+2BKTEV9jl97vISpY5LBGzPpapwncv9lWxd6/X7tWYGVLq8GLKy/s6V5r7s9F3ax+T8nVu5BP8nTlJOD6KMCUD1d1ffNGd/14UHWlgtGOu7g7Euu6a+gvsyIQFjJE1W06K+RQKb5xp4J6dyeOnvXfn57VeRVP4BLzZw8A4K4EPUIV79xRzrrLaz1Uucfihl3aN3su5R90ZL3D8A9rLsvjks89lfKesevYd1/gzNayV7e9d3Mtpb91762/LsI2x51tfxN7n7ere943OfZuYkb/0uZ+G0mv4DsZFHZ2ufXxERaUbiY4iikuKCYK1Bz2PDhhimZaYxIRa3IM2Z/cWB97/o2wPaxP6Qvw+I70NCeCWFW2tPnXbWPjIcwl1T0B0i43AOAu3jyszsYZ3p9yNN21UckeFQ+qkf53lbsoBnon2NvRmjgHBMs+e6FnQEqIwhDqdVM5aTrs+5tJwq4gJ7YRAbhYFKCv34XTEkZWHC+v17vASJjyEKMJjmMstz4BjjncfkngXhXq/AP4EEqO4BbV22OPOnjb/Xqs+67NqCz+BnAlj/DPirISri1+dlTvNcA++kXRozf3IVlxz8gMIOV3HTrMPWdPoG7FIBfEM5nMumd9vyacAnHmHHuzsID/xEERH5vkq+keysRNr4OOyeyi7fQ7FRjvXf7jOlDrWsk3WfSbbO1h/n87pkCfi9p7l97XllrdWz68UWvLusHbev7w9Yfba7q8MSAT9VFa5jf2QWJseyAM827mn1zUEwAm/nY+7Bnns1+oZOp69t67jg91uCpRK8L9bx1CgV8S8WtoJ1sQdetq2BP8zMu2Zw97xLtAY+1KVOmE+fys28enoAt/c5zfrXKkm9rQeVG1ZweoDTsSGw64WPm3q4IiISavxMf286jbEt28XGvVhbQkDL2FzEZzDNHpya05hlGsPIAs8AzmvxOjf5RSWYTF1JoQRjfDilnwa+pVuZpRJio2gPtZybwMjp9uDdnwJ3vrm/tGgfGY7z3Lp15ryE/fWsvF9iLoekKLcZaz/FRmGgHHMg5wU4a5//1jpr8bnMKZidXzL4SINvSu5F0vwNvJ3PsbfztWWbr+C0KdbE+5pZrv8YijFbICm+D3EUN3gafbObIW8oztXm7TPup3J46elLmOutOn0QKYBvKB0GMHxUNLywCoabGF76Ga+W9Wf0sDPkvVbG8FEDKMuDUudjo6DihTJih5loD2wIoVh+zX03+VifLiIiIgE58SnFlT1I6pNB3L7qAmdJ4bhUoXcPhKsrizsnfTsVrdtaDKwlN3EuJvcALj6DvrGVFG6oJRXaVswucXQfosJL2O82W+vPmEq2fkJpUlqte7qnTMoiKby+wXseRaVpmJLSSNlqvV/3CvHgJfB2qlrvnkJvvUcfa9Vta/k9AuTaOL1kCWjm3p4V4TarHjd6Cr0KvBWxc6qJMHsKOMZor3GQRaY5OLPw9Q3avBWac762r8Dbn8/q0n9N/dZXQ79IsL54a5otGOs69uY982/gyulZ3qvNO6rTZ3Hj0N3aBz6k5D7BnTNs//7LWbb16pu56TXrR7vsx3I9j/HTpt/kRkRERBqC51ZlSZlzrRXGHVtxVQdZ9nXipbnLeds4gwlOhWhLtr5HYXxW9Xrr0hxW5nZ1WsPsnH5eHSjnv5VDolsA5386vD3Q6+E12Kx9TNZrbFgBmU73Z+UUrPefYguyw6ufj6OZv+n39vu1zjrbx1RVuI6VRWmuY9pnf7Fh76uSwg05RGameVyvZOvL5EY6t3Xetq268r/7OniP9PTYNGbNTvN5vPrlh024vb3rS438t5ZTNnoGE9zH4/O7tNdE6IFp9gyMtmuVbH2Zt5nBBPd18H5uEeeutlnYuu7B3twFej/251LTC496PyMfu0h4G0cgx+qaMRCs777pfneq+Oj5B8i9cIEL3g6f2saLD3/EhQtej9Zbi+QU03cNcuXvkdPmMi6P69jUwxAREZEm9lXJMQwRdc11byrV27rVtHe4BIvTVnN1CIwvJv4Wn/NXoMFcsCrY16etP+2DEqjatq2s73KUYAlWFf6L4QVQVYWFtsb2frdXAB8ECuBFREQEQjSA7z+FWSbqUXhNAqMAXppG9TaCzSOIF6tAA3il0AdJheVMUw9BREREJHD71rKymVUeF5Hgy39rOUyai6mGVHpp/jQDHwSnzWWh97ZdREREgq6qwqK/E4iIiN8CnYFv2YBjEREREREREZEgUQp9A+nWtQs/vXMuMcZ2AZ9bUVnF315+lZyduQ0wMhEREREREQlFCuAbSO/kXrRr25Zdu/dSWVFZ+wk2rVtfwhDTYH7Qs4cCeBEREREREXFQAN+ALly4wPsf7GDfJ/7XdO3cqSP9+6UE3Ncv7r+PKddOpLSsjId+/Si5u/f6fe5tt8xk/LgxnDt3nptm3RZw34EyDR7Ig/cvJCEhng8/2kn2vYsCPv+RXz1AbPv2rH1zPb977PcNNNJql10Wzdx5d9E+Ns7x2Yb1/2brlncbvG8RaXwjRl5Njx4/IDc3h/x9vgv9pPRPpWfPXmzcsI6qqqpGHGHtuiV1xzTkSja/uxGz+WRTDwcAozGGceMnce7c2YCeWUr/VFJSBrBp41vN5l5ERESagtbACwNTB9ClSyJhl+h9ji83zZiNxWJh4b3zWXjvfHbn5jBm7ARSB5qaemgichHpltSdm2beyqzZc5k1ey4p/VMbtf+U/qlc98NpGAyGRu23qRkMBq774TTHc58wMatJxhHIftf+nO/8c32vHSx1HYf9uxER+b5TxCaNLnf3Xibf8KOmHkZAnvnzky4/f/Df/5Cc3Jdeyb3J26ulDiIXm23v/4dt7/+nUfs0GAyk9Etlx7atHCo8SEr/VAakDqbCUs6hwoONOpaGYjafZNWrf2vqYXgYPORKyspK+dc/VjuyBEaMvLrRfwdWrljOrNlzWbliebO5tq+gubbrBOM+nPt2vpa3MTXEMxMRaY4UwIeoyZMymXHTdDp27EBYWBjffvutR5s/L/0DVwwZ7Pj5f//7H2bzKV55bTWvrHqD1a+sJKlbV8fxpG5d2bVjKwAVlZUsXvIUGzZuIjzcwP+bcxvjrxnLZZdF8e2331JSUsrra/7JK6vecOlr83/+S2KnjiQldQOg6OiXPPX0n9nx0U4yx49j4YK7iQgPd/S5c9du7sy+12PsN02fytQfXkdcXCxhYWF8/XU5b729kSeX/tnr85g39zZumj6VsLAwNr7zLg//9nHAM/X9/PnzrHn9VUfQbT9eVHSYkpITZE6c7LWdL0bj5TUeF5HQYg/e2rRpwzcXLjiCaWf29Hq7M2dOuxyLiori7fXrANc09ui2bRk2YjRHDhc6AsMJE7OIjm7nSA1/89//cFzr+JdHSUkZQERklN/jT+mfismU5vj57NmzNR63LxHoltSdYSNGc0mY9a8F034003G+c9q68707HzMYDIwZl8mhQwdJSRlAmzZtajy3pKTY8Yxqera+ljDY2x048H+OZ+l8b+7fnX2pw/79nzDkiqFcEhbmMgbnQN1sPsmZM6eIivL/uYe6moJ0b4FxY86E+wrMawvoRUQuVgrgQ9CMm37EbbfMJDy8OsWxZcvaV0O0atWK9u0vZ9bMn3Cs+ITf/f3s7p8yacI1tGrVynGdDh0SmD1rJuXlFtatf9vRNuPqUS7nduvahbm3zyZv3yd+92cPxi+99FLHZ5ddFsWY9NF8sG2HR/vrp2Qx9frJtG7dmp27drP4j0sB6NChE7fPnU9BwX5+/8RvABidPpYbbvwxgEtwPtiURoXFwlN/eJzjx79k3p33MHbcBAoPfsHXX5/x6DM2Lp5LWrfGbP7K7/sSkebPPkNsNMaQMXa8x/GU/ql06pTIurVrMJtPOgJDfxwqPEhEZBQDUgdz7MsiIiKjXIL3+uqW1J2UfgP470jWgKAAABogSURBVNb3OFR40PHywM5ojKF9THtH4GNfV378y6McKjzomPX3tabf/d5HjLyaUVePYeMGaxAcFhbGgNTBjsB5wsQs0oYOdwmSt73/H8dLDncjRl7tcn1fvLVzv/eU/qmkXTmCM6dPO9pER7dl0KAhvP3WWqLbtiVt6Ai6JXVv8uwGb8FnXWaY/Znx9jcYvmhms+MzmJYZxf4Va/G/GpGISPOmAD4EjR1zNeHhBsrKvmLF3/7Omn+u5aFf/JxJE13/suk+s33rrBncPOPHhEeE0+sHPZl20yygeva88NBhx2d2w668ghFDrX8BfOfdzTy97Fk6derIz++7h25duzBq5AiXAN5auG87T/9lOfPm3MrYjKtJ7NyJq4YPY8PGTWzYuAnAY/bfrk/vZMZmXM2ll17Kl8eO8cprb7Bh4zvccP11jBwx1KN9ZHg4s2f9hMjISHbu2s3CBx6kstL6l86rRl1NZWWFyyzPntydDBlypUfqe1lpCcufedoRrJvNXxEbG0dkZJRHAH/ZZdGMHTeBb86f54P/Nm56pYg0HYPBQM+evcjP/7jOAXf+vjzatm1HSr9UwsLCarxW2tDhnDt3loNffO7XtZN79+XLo0U+A1Kz+ST/+U914c3jXx6ld+++RLdt69f9dO6c6DLeT/P3kTF2PPEJHThRfByAj/N2O/o/erSInj17YTAYai1WZzTG0KlTYq3PdvCQNGJi2nu89OjYKdHl3g9+8Tk9e/aiQ6fOjnbfXLhAzkfbMJtPUlVVybmzZ71mN6T0T8UY054d27bW+kyCxZ/gvD7qm3IeskH9ic3sL52LafYUUBAvIhcJBfAhxjR4oGNv+Zyduaz551oALnz7P4+2kydlMu3GH9IlsTOtW7d2fH7+m2/87q979+5ERITTqlUrrhmbwTVjM1yOJyTEu/xcdPRLFv3iIQB2fJjDiOFDaX3ppXTt2sWv/rp2ScRobMf5b77hnXe3OO7vpb+/ykt/fxWwPgO7EcOH0qZNG44dO86yvyx3BO9gTW9vHxvHLx/6nUc/FovF42fnQH31ay/7HONNM2bTPjaODev/zfHjX/p1XyIidrt3fcT4zCzOnq3yWeF+xMirHbPzwaxuP2FiFnFxCY6fv7lwwa/zDAYDbdoYMJnSXFLwazv/0kvbYDCE13oP0W3bQguosJT7bNOmTRs6duxMSUmxR5AfFRVFXFyCS/q9u8oKi+NFQ1VVFf/6x2qPNt2SujMgdbDLi4hQUFOxukCC72AH6r5ePLh/XlOfvtbBu59vb+feJv+tdRinZ2GalEr+W753lBARCRUK4EOYt6DdbtyYdH565x1ER19Wrz4ubX1Jjen59rR6byIjI2hBC/juO/7n518SA1VSUkqnTh25/PIYrr56FAX/94XLcfeZ9fqad+c9dEvqzu7cHG0hJyJ1Mjp9LKdPmWnbzui1UNqIkVfTpWsSO7ZtDeqWafaXAvbUc1/LBGria026r6r1586dpaqqstbrnjl9utb/T5w9e5aPPvyAK4de5fW5Oa+Hrwt7HYAjhwtr3DqwuatvOrw/AXNdxhKsa/i6J999FfP+1gMkZKaR2T+PDfvqPSQRkSalbeRCTGlpGWfPngOgb+9kUvr24dZZM0gfNdKlXbduXTGEG7BUVPDk0j9z449v5vU1/+LcuXMe17QXOYqOvowx6aNdjh0+fISqqrOc/+Yb1q57ixt/fDNDho12/OOect+yRQvCww0MGpjKdZOvJTzcQHm5hU8/K/Dv/srKqKiooPUll5A1cQI3XD+F8HADM3/yY57505Mus+8AeZ/kk7t7L61bt2bq9ZO5fkr11j9m81eEh0cQGUABqJpM+9EMR/Be0wy9iFycqqqqOHu2is6dE4Hq2Vp3bdoYMBgMGI0xpF05glatqt+Vp/RPJTq6HR/n7SFvby6dOifSLam747hz8B7oDHB5eTnt28f67BtcA+q0ocNpfWkbl+MVlnIubdOG+IQOHvdeVlZKSsoAjMaYWsdiNMaQkjKAsrJSvzIIzOaTWCzlpA401biF3ddnzpDz0Ta6dE1y2WLv6NEiunRNcnmWgXAO3hu78nx91RSkO89M+3Md+zm+Ctc5b+XWVNu61emlwInN7C+F2D4ZxAV/SCIijUoz8CGm6OiX7NuXT6eOHejZozt/ff4vXtudPGnmm/PfEBkRwT3Zd3IPdzqOuafQnygp5dtvvyXGaOSx3z7MY7hWoZ+cNZG0K4YwJWsSU7ImuVznpb+/xvLnVzg+69q1C/99r3pN/P/+9z8+ytnJjo928ov772PKtRNd+r5iyGB27djq0t+uXbsZf81Y2re/nEUL7mbRgrsBa3Dv7rvvvuPZ51fQqWMHOnbswOxZP+HEiRPs+GinY6u3m2bcUu9Z+NHpYxlsSlPwLnKRc6/SPmr0GIaNGO0IqHM+3M648ZOYNXsuZ8+e5eO83XTrVh002tPjp/1oJt9cuMCBLwpITOzqcu3c3BzM5pOYzSdJ7t2XYSNGA9ZZ6E6dErkkLIxRo8cwavQY6+dnTnstKufOve+P83a7FNj7NH8f48ZPclSYP3bsKOfPuVapP1R4kI6dEh39O1eStxegy5pyg6O9fWx2zin2zjPiBoOB8ZlZREe3dbSdNXuuSyX4t9evY8LELMf4wPuMv70YoMmURufOiby9fp2jjfNzc6+CX5Pk3n25JCyMHj1+4EjD97ULQUOoz97ojbE23VcfjRHAu2cE1NRnTc8iv6gEkymK9kBJMAcoItLIFMCHoGeee5HottGkXWHikrAwzKdO8cG2HYwdk+5os2HjO/Tv15fRI0dgMBg4d+4c//fFAYzt2tE+tr3L9db8cy2JnTsyoH8/rzMfi37xEAt/ls1VI4YTFRVJixYtfI7t22+/dRw/edLMO+9t4bkXVvhs783iPy7l9NflXDMmnZgYIwDmU6fYtGkzubv3eszC5+//lJdeWcX8ebcTFxvL/HlzKD5RwqHDR3h++TJunzvfZR28v1vE2XXo0IlRo6xr/web0hjs9Jf7QK8lIs1b/r68GtOnve1j7tze29rqnA+3O851v7b7Vmr12SPdW9/O/fm7B7u9Wnwgx+z/7/CVYu9rzbk7b1vLgef34u17qum7q+179dVvY6lrEbtgBe/2FwHBDsjrGmzX1M7Xfva1jr20nCp6kNgf8pVGLyIhTAF8CCotK+Nn993v8fnvHl/i8vOvHvEs3ubNocNH+Ok9C30er6yscuyrXpvDR4o80uod43vs9/zusd/Xeo3KyiqeevrPPPW09z3fc3fvZeLkqS6f/XPtOv651vMvYMePf8kjD/3cZ19ff33GscWcL7VdQ0REpCHVJ1D3FfAG6/q19e1NQ7woCMkq+SIidaAAvoF8ceAg723ZyomSwBK1Tp0+zZat73Ow8FADjUxEREKNfY32JWHe/7dd3wJu8v0SaGV6bxozYHavMO/8UiKw4L0SS2kDDVJEpJEogG8E104cj8VSwekzZ+ie1I2du3Yz9Mor2LP3Y5J79XQc69O7Fx9s+7CphysiIs3MocKDzXpbM39T5KVpBBLoBrLFW0Nx3xbPV9X5gIL32CgMlGM+EaxRiog0DQXwDaRLl84MG5pG/v7PMA0exEmzmdLSUkyDB3HseDHDhqZx0mx2OTZ82FAKDx3hyrQhhIW1Ym9e6CzSujP73qYegoiISEhpzNRvfwNe+/H6pLnX976cx1BTGn4gQXxKYhxUHsCzHK6ISGhRAN9A3tu8lfc2bwXgoV9/5vh81ev/BODDj3Y62vk6JiIiIhIsgRSqC1bg3BCc+/ZrLPEZ9I2F0tzNqkAvIiFP+8CLiIiINLKmCoDrW8yutoC5Ie/Lvve8r8r03l9OJDBydA8MpTlsCJ3ERhERn1okp5i+a+pBhLrT5jIMEZFNPQwRERFpYlUVFv2doBlJmTQXU2wJuSvWkt/UgxER8aKqwkJbY/vaG9poBl5ERERELj7xGfRV8C4iFxmtgRcRERGRi8+Jzaxe0dSDEBEJLs3Ai4iIiIiIiIQAzcAHSVWFpamHICIiIiIiIhcxBfBBEEjRAREREbl4nTZrp3EREWk4SqEXERERERERCQEK4EVERERERERCgAJ4ERERERERkRCgAF5EREREREQkBCiAFxEREREREQkBCuBFREREREREQoACeBEREREREZEQoABeREREREREJAQogBcREREREREJAQrgRUREREREREKAAngRERERERGREKAAXkRERERERCQEKIAXERERERERCQEK4EVERERERERCgAJ4ERERERERkRCgAF5EREREREQkBCiAFxEREREREQkBCuBFREREREREQoACeBEREREREZEQoABeREREREREJAQogBcREREREREJAQrgRUREREREREKAAngRERERERGREBDW1AMQEREREfEukj8tHcPAcDjy3lpuWh34FaZmZ5CdYmHD7Tk8GvwBXtRunTaca6MPs+S5Y2zz+ywjT97Xm26On0/y5u8LeLEhBui35jgmSHk4i4mJULRpHa8xhEXjEqBoJ088fKKGs+L50YoriP5kC88+aWm0sTaI6bZ7tqv13usn9p6ruaVfFGc+2cKz2+O5444+RFd+yl/nH6A06L358ztn4FdzBnH/k+8EdGUF8CIiIiLNzAMPTiEz0cuBohxG/Ka4ftcJ8BoupqWxbUwke5/bzE931e0S1mskuH1YXr9rSjNi5p7fbwdgxNiBLEht4uEAzXNMUHqmHICThQCnOEMC0Q3Z4RU9uOOOPpzZtI7XVtXhfFvAXeT1/EjGLUtn4FcBBOGrdvHEKqdz6zCkQJQWW6BfFGeKLbDTwpk7aMDn7c/vXBW/fm57wFdWAC8iIiLSzDz6m7XW2eIhPXl7TiIH6hPcugTs1hntbc8XN/GMtGvAPjU7g+w5U3glyX2W3cJPs9c2xQBFmsSZM814Vn3VUYrGJZCYHA+4BelXxJMUDkUFDTeD3iC+sjTA7HvD0hp4ERERkaaUfi+L/3AvoxulMws/zc7hCAlkPug+C9503liaw95K6PKD5jMmkUa108KZph5DrU7wSRGQ2JkUtyOxwzsTTTGf1GVmv0lYOFnZ1GOoG83Ai4iIiDSR0XctI7MLHFk/n62BnDikJ2/P6UsUrjPp1vXeUZTnv8eEpb5m8orZXwRdEhN5gGLbudVrze2cr+Geij9wzhS2zbH9ULmfpdlf8IbH2Hwc98pC8Vcw8PJIpgJveIynphR797a1ZRck8MrzaXRxu0fP67j3aT3eo/A9Jpzo67QMIMD0//YdeWVWV0o3bOee/c4HbGtmiz5jymqzHxeytmfDZ5BpXWt7aMN28lOGc20iVOTt4aZ3q2xtrWttBznlCx/y6B/om8zazBjXz9yjStv4IxzHA10j76wnP34om9TLvibvLw/w6kH3sRjYs3Ivvy7z7B/n+/MYdx3WuHv9XqzPONblWXrpz+/vzFXpk//hCcdPJ3ht9jqv7exr5Z25fy329d0OTmu73Y9Fj8ti0Tj7T8Wsn72LfMdRWzq785+DZ//Dpp3Wn/ILipmYmEC/6ZC/qvqc1O5RUPSZ03VqHpPfpg9h0bhIlzH4Wgrg/pw8Uv0dKfsAFjbNX8emQMbiLBi/c3WkAF5ERESk0dUQuPhj1xdMAN6e05fMBxN49DfFMKQns2sN3q2++LociCRhCLALHngwDf6+lhH2IHRaGtvGjOGVadaUdkdKf21r4B3H1zqOP/DgFLKXAjUG8ZEkXA58ZbG1cUqdt13TO1swXrmfpbfbr5/AKw8mgNd1/k7tXcZj/dyY/x4j7M9uWhrb5mTwJ1zvNSplDNtSitlwu/WZPPDgFDJ/0pOpu2p7SWFTZubzM10ZNLwjI/Y7Bb59Y+lGJXu2BBYIdsvswp6V28lPH0768IGkH9rDEnMyC1K7cOu7Bbzo/GLgOdu1+yazNnM4r3SoDkzt63T3rNzuCJitReycOnME1a5tFswB6hzE+7C/lEOZvRmUbgSn4HhEaiwRnORNe0DdviOvpJQy5fcFthbWlxXXzunI58EeE/bnVMWbv99uC9as/a2dVrcgvmb2teGf8tfZ9sDXVsTOudn0IVzPLp6Ybf9zb21zy8MWnnj4RPWLglrXwFcXyHvCXiBv+hAW3XE1YAugvaXRe0ufr2VMweW0/n62fUw9uOOOLH5EHdf716SRf+fcKYVeREREpDF1v4UH/5BNKrt59t46BO92u75gwnvFkJjGK9Mi+dNP+hJVlFNr8O7No79xC8hXF3EEMMb7Cpy9ieRPwxIoz89xudajG/dTHp7IyCG+z3zgwTEMDC9n78bAius98GAaXShmg0swXsxN3oL3IT15+/k0uhTlMMLtZcLU7D50qdzPCudnt3o/eyuj6DHM7RlU7mep0wz/F1+XQ7iRnn6Puopfbz8J0bGkt6/+9NaUGDhTypYy32d6VXTEEUxHRFexxXmmGBgxtgvdOMmbzsHl/gLeLIKIbkZGAGDkh6nhVOQVuM52uzDwq+ExHm1e3HKYCrd78d8XvPrIfBZ6/XNg5h95lZAYy61OY0jvFg5FpdUznWXHuMklcK5iy6FKiI6iV12GVCPrczq0wXmm1fZ9OsY5mPa/eYYhS73/0yUjgO6m97b+uXipllnrVbvcKtLbUt0vjyQ2gO5i7+lNYuWn/NP5Wqs+Y29lFEnD7X8OPNPovabPB2lMfpnem4Hhxax3fjGw8wDbirC9aAiyRv2d86QZeBEREZHGkn4viyd2gyP/ZuHT79b/eqtzWBqfQfaYMdZANqDq8haK7YG2e9q7TXlAg4nCGG6boX7e86gxCdhV3dYjDf92P2ewHWyz9kVFfhTjSyBzToK1Hy/PqOdlURDel+zn+5LtfvCyKMApEHFkCVi9sXRzgOPGMbvcK9UA71YBRlIS4dAG19k762xvuMupFW7p3BVmp4D9TDmfu3XVyxgORUc8UntfzD/JtZnWgGNbewOxVPJ5XhW+GWgXDRGpg1jrpaJ2u1gg0JcPtdiWV8q81K6k9AX2A+2N9IquZM+/XGe6b51mXTbgqqZ7qaP2BmKBiMzhrM10P1hJx/ZA2W7KHtwdlEcRmxAJlUfJ21lbS/e0d8eQAusvOgrC+3DLij6eB6Mjsf85cE2j954+H6wx+TXuhEggiokrspjofrDS+sIg2IXqGu13zgsF8CIiIiKNZcsfWHjkFh78f5NZ/FAnnn3krxTW85I9L7OH3dUp8X6dU1nEF1AdvLtUq7ellNdhPP6k8Df+tnHFbHjOzFVz+pL9oIU3vL3o8GutfrBYZ5cXdDMygmNs6xtrnSV3W5O+7d29bAvCe55gcn+B0KDKjrGlqCvXphhhv9maPu+WpWANpCpd1so39FZxXusHNBl7oOy6lj3l4SwmXl6Hy/mzTt2WRh+dEOmj+nyQx+QX97X8DacpfuecKYVeREREpDEd/Cu/uXcpeQzmjj88yo+71/1SU7MzyEwsZ+9za9lQFMXAn/Rkam0nDenJVYlQXlhsDVaTjEQRePq6p3LMlRB1mfs8fkOxFr7DVviuVk5LDt7Odk2LDzwNvv625ZU6Us9vTYmhIs9zljwYPje7p6FbWVP2nWfsw62z6A4GOrostK7i1BmIMBoaYJS+vZhvT0+3ps8f2u6cpWAbo9MyggZVVmUtCtehpmcQxBR6gPB2rinnV0S67V0eSUw4nPnEfQY8cKVnyj3788qaDh/dPZ4Ur9Xngzcmf5QWW4BIOlzRCJ019u+cFwrgRURERBqdde3vhiOXkfr/lnFneh0u4ShaZ11z/uhvcjgS3pfsmraHs8+2O6/3LjRTTpQ1xR1wrtLuwdbWY104ABZ+usN7gNxQrOvr3e/ZVsTOm9U5LM0vJypljMsY31j6qXVrvaV+vAAJljIzn58Jp1dqR1ISa0tfr7tteaVUEMO105zyKfomc20i1cFwmZnPz0C34R1ta+I9q9ZXr/XuzStjgxXE9+THDy1jcU0vsvaXcogYUsYa6RV9knyXme8qjp0Bog22cXtfduAXj+DcVvzPpZE1cyIidRBP9vV1od2UPTiPXdne/zmy2f8hlW4/yhkSGHGP7XfVVoTONYC3bocWHV39++ytaj3g2KrO17rw0ic/o4gEJi7rUWsQn19QDOF9mNgvCoqOugXqAYypNoWnOEMUMfb/Pnl7BrZ1+gPvGOKxvV3wBfF3ro5aJKeYvmu03kREREQuYqfNZRgiAgxe0+9l8UTYcO8fHFvJuW/b5mBPc5+WZt3GzD3t2/65rZ236xx5z1pZ3pl9+7nqNu9hHmbbMs09Hd7eh52vMThzblNbJXugxpcILqn+3tp621rP4vKZ47l4WTbg2qdzqr9tm7mv3PuvB/tWVHXahsx1izNrxXjrlm44KqXbi625B6OVntuzubU5tGE7/+gwkAXdSl23ifO61ZzTVnLu28w58Uy/9283BnuA5D193+3ezhxmyfYoFmRSff/+jsnl3irZs7IArhtEr0Ou/XoN2Oq4lVytpg9h0Tj7n6di1s/+jA7L0kk6uKW6SJx7UFu0k7+e6c0t3Y96psN7BMDuqefWavGu/9lw3UrOvZ3Hdm1+jsljmzkf/bm2K2b97KP0W3EFuPTrfc2917HVW7B+56zXuePhd2hr9L8KpAJ4ERERkSCpUwAvIiLfW1UVloACeKXQi4iIiIiIiIQABfAiIiIiIiIiIUABvIiIiIiIiEgIUAAvIiIiIiIiEgIUwIuIiIiIiIiEAAXwIiIiIiIiIiFAAbyIiIiIiIhICAhr6gGIiIiIXCwC2ctXRES+v86dq6rTeZqBFxEREREREQkBCuBFREREREREQoACeBEREREREZEQoDXwIiIiIiIiIo2oqsJSp/MUwIuIiIiIiIg0oroWPVUKvYiIiIiIiEgIUAAvIiIiIiIiEgL+P1TqAEmrLnO9AAAAAElFTkSuQmCC;fontSize=16;" parent="1" vertex="1">
          <mxGeometry x="20" y="730" width="1008" height="130" as="geometry" />
        </mxCell>
        <mxCell id="YDejN1sjh1fdvF6qTLhg-2" style="edgeStyle=elbowEdgeStyle;rounded=0;orthogonalLoop=1;jettySize=auto;html=1;elbow=vertical;" edge="1" parent="1" source="YDejN1sjh1fdvF6qTLhg-1" target="72B60rN5-rt9cfSifWYk-12">
          <mxGeometry relative="1" as="geometry" />
        </mxCell>
        <mxCell id="YDejN1sjh1fdvF6qTLhg-1" value="插件一键提取" style="rounded=0;whiteSpace=wrap;html=1;fontSize=16;" vertex="1" parent="1">
          <mxGeometry x="70" y="183" width="120" height="60" as="geometry" />
        </mxCell>
      </root>
    </mxGraphModel>
  </diagram>
</mxfile>
